<svg width="26" height="26" viewBox="0 0 26 26" fill="none" xmlns="http://www.w3.org/2000/svg">
<path d="M13.0005 5.02611C14.8632 4.99746 16.6646 5.69127 18.0267 6.96194L21.6955 3.37522C19.3417 1.17013 16.2259 -0.0390188 13.0005 0.000960726C10.5905 0.00040399 8.22797 0.67011 6.17696 1.93518C4.12596 3.20026 2.46738 5.01082 1.38672 7.1644L5.59047 10.4274C6.10448 8.86485 7.09614 7.503 8.42559 6.53393C9.75505 5.56485 11.3552 5.03746 13.0005 5.02611Z" fill="#E43E2B"/>
<path d="M25.4801 13.2873C25.4954 12.3938 25.4031 11.5018 25.2051 10.6304H13.0001V15.4543H20.1651C20.0292 16.3001 19.7236 17.1096 19.2667 17.8342C18.8098 18.5588 18.211 19.1836 17.5064 19.6709L21.6089 22.8477C22.8874 21.6136 23.8929 20.1251 24.5604 18.4783C25.2278 16.8316 25.5424 15.0632 25.4839 13.2873H25.4801Z" fill="#3B7DED"/>
<path d="M5.60543 15.568C5.3212 14.7406 5.17467 13.8721 5.17168 12.9973C5.17686 12.1239 5.31814 11.2566 5.59043 10.4266L1.38668 7.16357C0.47492 8.97335 0 10.9715 0 12.9979C0 15.0243 0.47492 17.0225 1.38668 18.8323L5.60543 15.568Z" fill="#F0B501"/>
<path d="M13.0004 25.9953C16.167 26.0849 19.2476 24.9583 21.6092 22.8473L17.5067 19.6705C16.1765 20.562 14.6012 21.0164 13.0004 20.9702C11.3566 20.9604 9.75756 20.4334 8.43019 19.4639C7.10281 18.4943 6.11449 17.1316 5.60542 15.5688L1.40167 18.8331C2.47942 20.9858 4.13528 22.7959 6.18382 24.0609C8.23235 25.3258 10.5927 25.9957 13.0004 25.9953Z" fill="#2BA24C"/>
</svg>
