<svg width="16" height="20" viewBox="0 0 16 20" fill="none" xmlns="http://www.w3.org/2000/svg">
<path d="M12.5833 7.25016V5.41683C12.5833 4.20125 12.1004 3.03547 11.2409 2.17592C10.3813 1.31638 9.21553 0.833496 7.99996 0.833496C6.78438 0.833496 5.61859 1.31638 4.75905 2.17592C3.89951 3.03547 3.41663 4.20125 3.41663 5.41683V7.25016C2.68728 7.25016 1.98781 7.53989 1.47208 8.05562C0.956357 8.57134 0.666626 9.27082 0.666626 10.0002V16.4168C0.666626 17.1462 0.956357 17.8456 1.47208 18.3614C1.98781 18.8771 2.68728 19.1668 3.41663 19.1668H12.5833C13.3126 19.1668 14.0121 18.8771 14.5278 18.3614C15.0436 17.8456 15.3333 17.1462 15.3333 16.4168V10.0002C15.3333 9.27082 15.0436 8.57134 14.5278 8.05562C14.0121 7.53989 13.3126 7.25016 12.5833 7.25016ZM5.24996 5.41683C5.24996 4.68748 5.53969 3.98801 6.05541 3.47229C6.57114 2.95656 7.27061 2.66683 7.99996 2.66683C8.7293 2.66683 9.42878 2.95656 9.9445 3.47229C10.4602 3.98801 10.75 4.68748 10.75 5.41683V7.25016H5.24996V5.41683ZM13.5 16.4168C13.5 16.6599 13.4034 16.8931 13.2315 17.065C13.0596 17.2369 12.8264 17.3335 12.5833 17.3335H3.41663C3.17351 17.3335 2.94035 17.2369 2.76844 17.065C2.59654 16.8931 2.49996 16.6599 2.49996 16.4168V10.0002C2.49996 9.75705 2.59654 9.52389 2.76844 9.35198C2.94035 9.18007 3.17351 9.0835 3.41663 9.0835H12.5833C12.8264 9.0835 13.0596 9.18007 13.2315 9.35198C13.4034 9.52389 13.5 9.75705 13.5 10.0002V16.4168Z" fill="#30303C"/>
</svg>
