<svg width="35" height="35" viewBox="0 0 35 35" fill="none" xmlns="http://www.w3.org/2000/svg">
<path d="M10.57 2.81207L7.91812 5.43522C7.82077 5.53154 7.67203 5.55376 7.54966 5.49025L4.21714 3.76035C3.94357 3.61837 3.65064 3.90808 3.78968 4.18322L5.48322 7.53433C5.54543 7.65738 5.52157 7.80586 5.42423 7.90218L2.77236 10.5253C2.55464 10.7407 2.74173 11.1108 3.04539 11.0655L6.74398 10.5134C6.87974 10.4931 7.01379 10.5627 7.076 10.6858L8.76954 14.0369C8.90858 14.312 9.3171 14.251 9.3657 13.9479L9.95796 10.2556C9.9797 10.12 10.0863 10.0145 10.2222 9.99424L13.9208 9.44217C14.2244 9.39685 14.2898 8.98902 14.0163 8.84697L10.6837 7.11707C10.5614 7.05356 10.4933 6.91876 10.515 6.7832L11.1073 3.09091C11.1558 2.7878 10.7876 2.59674 10.57 2.81207Z" fill="#2AC25E"/>
<path d="M14.563 29.1733C22.6486 29.2028 29.2029 22.6486 29.1734 14.563C29.1501 8.16563 25.0333 2.7109 19.3128 0.687054C18.9133 0.545687 19.0528 -0.0511582 19.4725 0.00352926C28.0212 1.11785 34.9674 8.55972 34.9999 17.4923C35.0352 27.1968 27.1968 35.0352 17.4923 34.9999C8.5598 34.9673 1.11786 28.0213 0.00352927 19.4725C-0.0511583 19.0527 0.545687 18.9132 0.687055 19.3128C2.71091 25.0333 8.16565 29.15 14.563 29.1733Z" fill="#2AC25E"/>
</svg>
